<?xml version="1.0" standalone="no"?>
<!DOCTYPE svg PUBLIC "-//W3C//DTD SVG 20010904//EN"
 "http://www.w3.org/TR/2001/REC-SVG-20010904/DTD/svg10.dtd">
<svg version="1.0" xmlns="http://www.w3.org/2000/svg"
 width="500.000000pt" height="500.000000pt" viewBox="0 0 500.000000 500.000000"
 preserveAspectRatio="xMidYMid meet">
<metadata>
Created by potrace 1.14, written by Peter Selinger 2001-2017
</metadata>
<g transform="translate(0.000000,500.000000) scale(0.100000,-0.100000)"
fill="#000000" stroke="none">
<path d="M2377 3824 c-1 -1 -40 -5 -87 -8 -132 -11 -253 -32 -395 -71 -120
-32 -324 -107 -386 -140 -14 -8 -29 -12 -33 -8 -3 3 -6 2 -6 -4 0 -5 -31 -24
-70 -42 -38 -18 -70 -38 -70 -44 0 -6 -3 -8 -6 -4 -7 7 -122 -65 -210 -132
-111 -83 -168 -134 -284 -252 -150 -153 -170 -176 -170 -188 0 -6 -4 -11 -8
-11 -4 0 -21 -21 -38 -47 -16 -25 -34 -51 -39 -57 -27 -28 -138 -211 -177
-291 -42 -86 -101 -222 -104 -237 -1 -5 -3 -10 -4 -13 -1 -3 -3 -8 -4 -12 -5
-19 -18 -60 -26 -78 -7 -17 -31 -107 -45 -168 -2 -10 -7 -26 -9 -35 -3 -9 -8
-35 -11 -57 -3 -22 -8 -51 -11 -65 -3 -14 -7 -38 -9 -55 -1 -16 -6 -61 -10
-100 -11 -103 -13 -198 -4 -216 7 -13 44 -15 298 -15 159 1 292 4 296 8 4 3 8
35 10 70 9 166 39 324 92 478 40 117 130 310 145 310 5 0 6 5 3 10 -3 6 -1 10
6 10 7 0 9 3 6 6 -6 7 60 106 75 112 5 2 8 8 8 14 0 17 104 141 176 209 119
114 136 129 140 129 3 0 15 9 27 21 75 71 399 249 453 249 8 0 14 5 14 11 0 6
7 9 15 5 8 -3 15 -1 15 5 0 6 4 8 8 5 5 -3 20 1 35 9 14 7 28 11 30 9 2 -3 16
0 31 6 15 5 37 12 49 14 12 3 33 8 47 11 36 8 89 16 130 20 19 2 62 6 95 9 81
9 340 5 340 -4 0 -1 14 -3 30 -5 42 -3 103 -13 145 -23 19 -5 37 -9 40 -9 15
-2 101 -26 140 -39 63 -22 75 -25 78 -24 1 0 15 -6 30 -14 15 -7 67 -33 116
-57 78 -37 217 -122 253 -154 6 -5 26 -21 44 -35 29 -22 99 -86 152 -137 20
-20 17 -25 -43 -56 -44 -23 -154 -86 -355 -202 -55 -31 -105 -58 -112 -58 -7
0 -14 -6 -17 -14 -3 -7 -10 -13 -15 -13 -5 0 -48 -22 -96 -50 -48 -28 -91 -50
-96 -50 -5 0 -9 -5 -9 -12 0 -6 -3 -9 -6 -5 -3 3 -55 -24 -116 -59 -61 -35
-112 -64 -115 -64 -2 0 -20 -11 -41 -24 -53 -34 -310 -177 -317 -176 -16 2
-81 -71 -100 -112 -20 -44 -26 -116 -13 -168 11 -45 80 -130 105 -130 7 0 13
-4 13 -8 0 -5 6 -9 13 -10 20 -1 41 -7 52 -13 9 -6 87 -4 93 1 3 3 19 7 35 9
7 0 47 29 88 63 41 35 82 70 92 78 11 8 33 28 50 43 18 15 49 42 70 60 21 18
53 46 71 62 18 17 47 41 65 55 17 14 42 34 55 45 12 11 52 45 87 76 35 31 111
96 169 145 58 49 112 96 120 104 9 8 38 33 64 55 54 45 97 81 166 140 25 22
70 60 99 85 56 48 101 61 101 29 0 -9 3 -19 8 -21 12 -5 67 -82 64 -90 -1 -5
3 -8 9 -8 5 0 7 -4 4 -10 -3 -6 -2 -10 3 -10 5 0 17 -17 28 -37 10 -21 24 -45
30 -53 18 -24 111 -249 133 -320 33 -109 63 -276 64 -360 1 -44 5 -80 9 -80 4
0 5 -8 3 -18 -9 -46 -3 -47 310 -47 198 -1 295 3 296 10 4 51 -5 235 -15 290
-2 17 -8 50 -11 75 -7 45 -20 112 -31 160 -4 14 -7 32 -9 40 -1 8 -8 35 -15
60 -8 25 -13 48 -12 53 1 4 -2 7 -6 7 -4 0 -9 12 -10 26 -1 14 -5 31 -9 37 -4
7 -8 14 -8 17 -1 13 -39 106 -47 115 -4 5 -8 15 -8 21 0 33 -157 329 -184 346
-6 4 -7 8 -3 8 5 0 -5 18 -22 39 -17 21 -31 41 -31 45 0 10 -83 116 -91 116
-5 0 -9 5 -9 10 0 6 -7 18 -15 28 -101 115 -191 207 -235 242 -18 14 -44 36
-59 50 -16 14 -43 36 -61 50 -18 14 -38 30 -44 35 -6 6 -27 22 -46 35 -19 13
-37 27 -40 30 -5 5 -25 17 -75 44 -11 6 -22 14 -25 17 -3 3 -25 16 -50 30 -25
13 -47 27 -48 32 -2 4 -8 5 -13 1 -5 -3 -9 0 -9 7 0 7 -3 9 -6 6 -4 -4 -19 2
-33 12 -14 10 -28 19 -31 20 -23 5 -70 27 -70 33 0 4 -7 8 -15 8 -8 0 -34 9
-58 20 -116 54 -439 143 -565 155 -26 3 -72 8 -102 11 -50 6 -347 13 -353 8z"/>
</g>
</svg>
